<?xml version="1.0" standalone="no"?>
<!DOCTYPE svg PUBLIC "-//W3C//DTD SVG 20010904//EN"
 "http://www.w3.org/TR/2001/REC-SVG-20010904/DTD/svg10.dtd">
<svg version="1.0" xmlns="http://www.w3.org/2000/svg"
 width="578.000000pt" height="578.000000pt" viewBox="0 0 578.000000 578.000000"
 preserveAspectRatio="xMidYMid meet">
<metadata>
Created by potrace 1.13, written by Peter Selinger 2001-2015
</metadata>
<g transform="translate(0.000000,578.000000) scale(0.100000,-0.100000)"
fill="#000000" stroke="none">
<path d="M215 5728 c3 -29 22 -210 41 -403 53 -533 104 -933 174 -1360 27
-162 171 -1132 220 -1480 22 -154 44 -311 50 -350 6 -38 22 -158 35 -265 14
-107 40 -316 60 -465 19 -148 42 -326 51 -395 8 -69 30 -219 49 -335 19 -115
39 -268 45 -340 18 -217 32 -335 42 -335 5 0 6 21 3 48 -11 102 -25 241 -30
317 -4 44 -13 118 -20 165 -42 248 -60 382 -125 885 -105 827 -120 937 -141
1095 -25 179 -85 586 -99 660 -5 30 -13 88 -16 129 -6 67 -5 74 9 68 10 -4 17
-2 17 3 0 6 -8 10 -19 10 -22 0 -32 45 -56 245 -8 66 -19 149 -24 185 -5 36
-30 205 -55 375 -42 284 -58 394 -86 605 -5 41 -19 163 -30 270 -11 107 -25
233 -30 280 -6 47 -14 150 -20 230 -11 171 -18 210 -36 210 -11 0 -13 -12 -9
-52z"/>
<path d="M4417 5273 c-10 -280 -24 -629 -32 -778 -8 -148 -21 -443 -30 -655
-18 -423 -37 -787 -59 -1125 -8 -121 -17 -326 -20 -455 -4 -129 -9 -305 -11
-390 -3 -85 -10 -315 -15 -510 -9 -309 -22 -567 -35 -705 -2 -22 -4 -48 -4
-57 -1 -12 -9 -18 -23 -18 -13 0 -18 4 -13 8 6 4 11 14 13 24 2 12 -3 15 -18
11 -12 -3 -20 0 -20 6 0 7 4 10 9 6 5 -3 12 -1 16 5 4 6 -5 10 -22 10 -27 1
-27 1 -7 13 23 12 17 27 -16 40 -12 4 -11 6 2 6 20 1 21 41 1 41 -7 0 -13 5
-13 10 0 6 7 10 16 10 13 0 14 3 5 13 -6 8 -8 17 -4 20 3 4 -7 7 -23 8 l-29 1
28 10 c22 8 26 13 16 24 -6 8 -18 14 -25 14 -8 0 -11 6 -8 15 4 10 0 15 -12
15 -17 0 -16 1 2 15 14 11 15 14 4 15 -13 0 -13 1 0 10 12 8 10 10 -9 10 l-24
0 22 19 c20 18 21 20 4 24 -15 3 -14 6 7 15 l25 11 -30 1 c-26 1 -27 3 -10 10
19 8 19 9 -2 9 -24 1 -26 27 -2 42 11 7 9 10 -9 15 -18 5 -20 9 -10 15 10 7 9
9 -4 9 -20 0 -34 42 -22 62 11 17 14 39 5 34 -4 -3 -7 23 -8 57 -1 35 -7 63
-13 65 -7 3 -5 11 6 23 16 18 16 19 0 19 -13 0 -15 4 -7 19 8 15 7 20 -6 25
-14 6 -14 8 3 21 12 9 14 14 6 15 -8 0 -12 6 -10 12 5 14 -15 38 -31 38 -6 0
-11 5 -11 11 0 5 4 8 9 5 14 -9 1 32 -15 45 -11 9 -14 8 -14 -4 0 -9 5 -19 10
-22 6 -4 7 -12 3 -18 -4 -7 -8 -19 -8 -27 0 -8 -6 -14 -14 -12 -9 2 -11 -3 -7
-13 5 -13 2 -14 -15 -4 -17 9 -20 8 -13 -2 14 -23 11 -48 -5 -47 -9 1 -73 0
-142 0 l-126 -2 -6 -77 c-3 -43 -15 -104 -26 -136 -11 -32 -22 -81 -24 -108
-3 -33 -10 -54 -22 -63 -10 -7 -15 -18 -11 -25 7 -11 -15 -41 -31 -41 -4 0
-13 -8 -19 -18 -7 -10 -30 -24 -53 -32 -23 -7 -46 -21 -51 -29 -7 -11 -12 -13
-17 -5 -10 15 -53 0 -53 -18 0 -10 -2 -10 -9 1 -5 7 -13 11 -19 7 -6 -3 -13 0
-15 6 -4 8 -6 9 -6 2 -2 -23 228 -184 262 -184 9 0 17 -4 17 -9 0 -5 11 -19
25 -32 13 -13 25 -27 25 -30 0 -15 -39 -49 -52 -44 -18 7 -40 -49 -25 -64 8
-8 6 -11 -7 -11 -13 0 -16 -5 -11 -17 5 -15 4 -16 -6 -5 -15 14 -33 16 -24 2
3 -5 1 -10 -5 -10 -6 0 -8 -10 -4 -25 5 -19 3 -25 -7 -23 -9 2 -13 -4 -11 -16
2 -12 -1 -16 -10 -11 -10 6 -11 5 0 -6 14 -16 16 -33 2 -24 -6 3 -17 0 -25 -9
-8 -8 -11 -17 -6 -20 5 -3 11 -17 14 -32 3 -20 0 -27 -17 -34 -11 -4 -24 -6
-28 -3 -5 2 -8 -1 -8 -8 0 -6 -10 1 -22 17 -13 16 -31 37 -40 46 -17 17 -18
17 -18 -1 0 -10 7 -35 15 -55 9 -20 11 -36 5 -36 -6 0 -6 -9 0 -25 7 -18 6
-25 -2 -25 -7 0 -3 -7 8 -15 15 -12 15 -14 2 -9 -22 7 -50 -57 -42 -95 15 -65
11 -62 82 -60 37 1 69 6 72 10 3 4 21 9 40 11 24 3 38 11 45 26 5 12 13 22 18
22 4 0 5 5 2 10 -3 6 4 10 16 10 17 0 20 4 16 21 -5 17 -2 20 14 16 17 -5 25
8 20 36 0 4 8 7 19 7 11 0 20 4 20 9 0 5 9 11 21 14 11 3 23 15 26 26 3 13 10
18 20 14 11 -4 14 -2 11 8 -3 8 2 20 9 28 8 7 12 20 9 27 -3 8 0 14 7 14 18 0
77 50 77 65 0 6 10 16 23 21 12 6 17 9 10 8 -12 -3 -27 25 -18 34 3 3 16 0 30
-6 37 -17 40 -15 14 9 -24 20 -19 21 28 2 12 -5 14 -3 8 7 -6 10 -2 11 19 6
15 -4 26 -2 26 4 0 5 4 10 10 10 5 0 7 -7 4 -15 -5 -11 -2 -13 10 -9 19 7 13
19 -16 35 -15 8 -19 8 -14 0 4 -6 3 -11 -3 -11 -17 0 -21 18 -5 24 23 9 31 8
46 -7 7 -7 45 -21 83 -30 39 -10 75 -24 81 -32 6 -8 14 -12 17 -8 4 3 7 1 7
-5 0 -17 -31 -15 -76 4 -35 15 -37 15 -25 0 7 -9 20 -16 27 -16 28 0 14 -30
-13 -31 -19 -1 -22 -3 -10 -6 22 -6 58 -40 55 -50 -2 -5 7 -9 20 -11 12 -2 22
-9 22 -17 0 -7 8 -16 18 -18 9 -3 -8 -5 -39 -6 -31 0 -59 -4 -62 -7 -8 -8 34
-54 50 -54 6 0 15 -4 18 -10 4 -6 -12 -8 -42 -4 -45 5 -47 4 -29 -10 11 -9 30
-16 42 -16 13 0 25 -4 28 -8 2 -4 -10 -6 -28 -4 -30 4 -33 1 -33 -22 0 -38 -8
-41 -53 -26 -22 7 -43 10 -47 7 -3 -4 0 -7 8 -7 17 -1 79 -50 62 -50 -6 0 -10
-8 -8 -17 2 -10 4 -22 4 -26 1 -4 36 -7 78 -5 l78 3 -3 38 c-2 20 0 37 5 37 5
0 10 32 11 71 2 40 3 74 4 78 0 3 -1 8 -2 11 -10 25 -4 255 11 425 11 116 24
370 29 565 15 582 22 785 25 790 2 3 5 109 6 235 1 127 6 273 10 325 16 188
45 682 59 1005 5 121 14 310 20 420 9 185 14 283 40 830 5 110 14 310 20 445
6 135 13 302 16 373 5 119 4 127 -13 127 -18 0 -20 -26 -36 -507z"/>
<path d="M3372 4160 c-22 -14 -32 -16 -33 -7 -1 6 -5 -6 -11 -28 -23 -103 -25
-130 -12 -194 14 -67 11 -96 -14 -146 -17 -34 -17 -82 0 -103 10 -11 14 -9 24
11 10 19 19 23 39 19 20 -3 24 -9 19 -25 -5 -16 -3 -19 10 -14 9 4 16 2 16 -4
0 -6 7 -9 15 -5 8 3 15 1 15 -5 0 -6 9 -7 22 -3 20 6 21 5 9 -10 -15 -18 -1
-22 17 -4 9 9 12 7 12 -10 0 -22 1 -22 33 -6 17 9 35 22 39 28 6 8 8 8 8 0 0
-6 -10 -19 -22 -28 -20 -13 -20 -15 -3 -9 18 6 18 5 6 -10 -12 -15 -12 -17 4
-11 14 6 16 4 10 -6 -5 -9 -4 -11 4 -6 6 4 9 12 6 17 -4 5 -1 9 4 9 6 0 11
-12 11 -26 0 -20 4 -25 16 -20 11 4 15 2 11 -8 -4 -9 0 -12 12 -9 14 3 17 -2
15 -26 -1 -17 3 -31 8 -31 6 0 7 -7 4 -16 -6 -14 -4 -15 9 -4 11 10 13 15 4
20 -8 6 -8 9 0 14 11 7 15 -6 11 -33 -1 -13 1 -13 14 -1 15 12 16 10 7 -13 -7
-18 -7 -28 1 -33 7 -5 8 -2 3 7 -5 8 -4 11 1 6 5 -5 9 -16 9 -25 0 -9 6 -16
13 -14 6 1 12 -5 12 -14 0 -8 4 -13 8 -10 4 2 13 -4 20 -15 7 -10 8 -19 3 -19
-5 0 -12 6 -14 13 -4 8 -6 8 -6 0 -1 -6 14 -20 32 -32 17 -11 25 -21 17 -21
-12 -1 -12 -3 2 -14 10 -7 15 -16 11 -19 -3 -4 2 -7 12 -7 18 0 18 0 1 -13
-18 -13 -18 -14 0 -21 15 -6 16 -9 5 -16 -19 -11 -43 -1 -37 16 5 14 -10 19
-46 16 -11 -1 -18 5 -18 14 0 14 -3 14 -15 4 -13 -11 -22 -9 -50 6 -34 18 -36
18 -65 0 -17 -10 -38 -15 -46 -12 -7 3 -14 1 -14 -4 0 -6 -9 -19 -20 -30 -18
-18 -23 -18 -57 -6 -86 30 -92 29 -101 -6 -11 -44 -4 -88 14 -81 8 3 25 -9 40
-26 14 -17 31 -31 37 -31 7 0 18 -9 25 -20 7 -11 22 -20 35 -20 18 0 19 -2 7
-10 -13 -8 -13 -10 2 -10 9 0 24 -7 32 -16 9 -8 16 -12 16 -8 0 3 7 1 15 -6 8
-6 22 -9 32 -6 12 4 24 -1 33 -14 18 -25 55 -28 46 -4 -5 13 -1 15 20 10 20
-5 32 -2 46 13 10 12 28 21 40 21 21 0 21 0 2 15 -17 13 -17 14 -2 15 12 0 15
5 11 17 -4 11 -3 14 5 9 8 -4 12 0 12 11 0 29 14 42 50 49 19 4 32 3 27 -1 -9
-10 21 -45 38 -45 15 0 26 48 13 56 -5 3 -8 11 -7 17 1 7 -3 25 -9 40 -7 16
-12 33 -12 38 0 5 -4 17 -9 27 -5 9 -24 51 -42 92 -27 58 -52 92 -116 157 -45
46 -87 83 -93 83 -5 0 -10 12 -10 26 0 20 -4 24 -19 19 -16 -5 -18 -2 -14 14
3 14 0 23 -11 27 -9 3 -16 12 -16 20 0 8 -4 14 -10 14 -5 0 -10 5 -10 10 0 6
-18 26 -40 46 -45 41 -49 60 -20 97 24 30 25 55 5 142 -29 124 -51 160 -110
178 -12 4 -33 -1 -53 -13z"/>
<path d="M2292 4142 c-35 -33 -53 -105 -43 -172 5 -35 10 -44 24 -42 9 2 17
-2 17 -8 0 -5 9 -10 20 -10 11 0 23 -8 26 -17 3 -10 11 -28 17 -41 9 -18 7
-28 -11 -52 -12 -16 -22 -34 -22 -40 0 -5 -5 -9 -11 -8 -6 2 -16 -6 -22 -17
-7 -11 -15 -22 -19 -25 -6 -5 -10 -76 -6 -135 2 -40 -2 -46 -60 -95 -7 -6 -10
-15 -7 -20 3 -5 -9 -16 -27 -24 -29 -14 -48 -36 -82 -96 -5 -8 -27 -25 -50
-36 -22 -12 -49 -34 -58 -50 -34 -56 -58 -108 -58 -124 0 -9 -5 -21 -12 -28
-7 -7 -8 -12 -4 -12 5 0 3 -7 -4 -15 -7 -8 -8 -15 -4 -15 16 0 15 -128 -1
-144 -11 -11 -12 -16 -2 -19 8 -4 8 -8 2 -14 -5 -4 -10 -19 -10 -33 0 -14 -7
-34 -15 -44 -8 -11 -10 -16 -3 -12 8 4 8 -2 -2 -21 -10 -18 -11 -31 -4 -39 7
-9 6 -15 -3 -21 -8 -4 -14 -15 -14 -23 -1 -16 -27 -81 -45 -114 -8 -14 -8 -21
2 -27 11 -6 10 -9 -3 -14 -17 -7 -26 -33 -32 -98 -2 -22 1 -37 7 -37 7 0 7 -4
-1 -12 -15 -15 -16 -32 -2 -23 6 3 10 1 10 -5 0 -7 -9 -14 -20 -17 -17 -5 -18
-7 -4 -20 16 -16 69 -10 59 7 -3 5 3 14 14 20 12 6 18 18 16 30 -3 13 2 20 12
20 9 0 13 6 9 15 -3 8 -1 15 5 15 6 0 7 5 4 10 -3 6 -1 10 6 10 8 0 8 4 -1 15
-10 12 -9 20 5 41 9 14 14 28 12 31 -3 2 -1 18 5 35 8 22 8 32 -1 38 -8 5 -4
13 15 25 17 11 23 20 15 24 -8 5 -4 16 13 34 14 15 22 27 19 27 -4 0 -2 5 4
11 6 6 9 18 6 25 -3 8 -1 14 5 14 9 0 20 26 18 41 -1 4 7 16 17 27 10 11 14
21 8 23 -6 2 11 29 38 59 27 30 47 58 45 61 -2 4 3 12 11 19 8 7 15 17 15 23
0 19 55 97 69 97 8 0 11 6 7 15 -3 8 -1 15 5 15 6 0 7 5 4 10 -3 6 0 10 7 10
14 0 44 39 40 53 -3 10 47 29 67 25 9 -2 17 -9 17 -16 1 -6 2 -19 3 -27 1 -11
13 -15 40 -15 36 0 40 -3 46 -30 4 -20 13 -30 25 -30 19 0 34 -25 24 -41 -3
-5 0 -8 8 -7 7 2 13 -4 13 -12 0 -18 45 -51 58 -43 5 3 13 0 17 -7 6 -10 15
-10 38 -2 22 7 32 7 34 0 3 -7 16 -4 37 7 32 16 34 16 27 0 -6 -17 -5 -17 20
0 15 9 24 13 20 7 -6 -10 59 -26 84 -20 8 2 24 13 36 26 12 12 26 22 33 22 6
0 11 5 11 10 0 6 9 10 20 10 12 0 20 7 20 16 0 12 6 15 25 10 20 -5 27 -2 37
19 8 19 14 22 24 14 23 -19 36 1 31 47 -4 43 -31 79 -49 68 -5 -3 -8 0 -8 7 0
9 -4 9 -15 -1 -8 -6 -18 -9 -23 -6 -5 3 -20 -1 -35 -9 -18 -9 -27 -10 -27 -3
0 6 -3 8 -7 5 -3 -4 -12 1 -20 11 -8 9 -12 11 -8 5 8 -17 -12 -16 -22 1 -11
18 -51 38 -63 31 -5 -3 -12 0 -17 7 -24 38 -103 62 -103 31 0 -16 -30 -17 -64
-2 -20 9 -32 7 -71 -12 -26 -13 -50 -29 -52 -36 -3 -7 -14 -13 -24 -13 -10 0
-19 -4 -19 -10 0 -5 -4 -10 -8 -10 -5 0 -9 7 -9 15 0 8 4 15 9 15 5 0 6 5 3
11 -4 6 3 21 16 35 16 17 18 24 8 25 -8 0 -2 5 14 11 15 5 27 16 27 24 0 8 6
14 13 14 9 0 8 3 -2 9 -11 7 -11 9 0 14 11 4 11 6 1 6 -20 1 -3 21 18 21 10 0
23 6 27 14 4 8 17 15 28 18 13 2 20 11 20 26 0 12 11 29 23 38 18 13 20 19 11
36 -10 18 -9 20 9 16 20 -6 20 -5 -1 31 -11 20 -14 30 -7 24 17 -15 44 -17 35
-3 -4 6 7 13 24 16 17 4 28 10 25 15 -3 5 4 9 16 9 12 0 19 4 15 9 -3 6 18 8
50 6 36 -1 61 2 69 10 10 10 16 10 31 -1 26 -19 35 -17 35 8 0 20 1 20 13 4 7
-9 20 -18 29 -20 25 -3 58 -36 58 -58 0 -11 4 -17 9 -13 10 6 4 63 -10 102
-11 30 -108 61 -142 46 -14 -6 -30 -8 -37 -3 -8 5 -19 6 -25 2 -5 -4 -23 -8
-40 -10 -16 -1 -48 -5 -70 -8 -22 -4 -67 -6 -101 -6 -73 1 -116 22 -160 79
-28 37 -32 50 -38 138 -12 170 -69 237 -144 167z m407 -897 c15 -16 14 -17
-12 -11 -41 10 -67 -1 -67 -28 0 -42 45 -62 71 -30 10 13 10 17 0 24 -10 6 -8
10 10 15 17 6 27 2 41 -15 43 -53 0 -95 -89 -88 -104 9 -147 78 -82 133 28 22
40 26 72 22 22 -3 47 -13 56 -22z"/>
<path d="M3352 2688 c-29 -5 -50 -14 -47 -19 4 -5 -1 -9 -10 -9 -8 0 -32 -7
-53 -16 -20 -8 -38 -14 -40 -14 -2 1 -18 -10 -37 -24 -18 -14 -37 -26 -42 -26
-13 -1 -49 -34 -62 -59 -12 -22 -9 -159 5 -236 7 -37 30 -74 52 -82 25 -10 42
-29 34 -38 -4 -5 0 -6 9 -2 14 4 16 -3 15 -53 -2 -55 8 -70 30 -47 14 13 22 7
17 -12 -3 -11 -15 -28 -26 -38 l-22 -18 20 24 20 24 -26 -16 c-14 -10 -29 -14
-34 -10 -4 5 -2 -2 4 -14 13 -25 -3 -67 -33 -92 -17 -15 -22 -36 -6 -26 6 3
10 0 10 -7 0 -9 3 -9 10 2 6 10 10 11 10 3 0 -17 15 -16 34 2 19 20 27 19 19
-2 -6 -16 -5 -16 10 -4 14 11 17 11 18 0 0 -8 5 -3 11 11 9 21 11 22 17 8 4
-12 10 -15 20 -9 8 5 20 7 28 4 8 -3 13 2 14 13 0 18 1 17 9 -1 8 -19 8 -19
18 5 7 16 11 19 11 8 1 -9 4 -25 7 -35 5 -15 4 -15 -5 -3 -8 12 -11 12 -11 1
0 -7 -6 -11 -15 -7 -8 3 -15 1 -15 -3 0 -5 -16 -8 -35 -7 -27 1 -37 -3 -42
-19 -6 -19 -6 -19 -13 -1 -6 18 -7 18 -25 0 -17 -17 -18 -17 -12 -1 3 9 2 17
-4 17 -5 0 -12 -7 -15 -15 -8 -20 -24 -19 -24 1 0 14 -2 14 -22 0 -31 -22 -41
-20 -32 7 6 22 6 22 -15 -2 -12 -13 -24 -21 -27 -18 -4 3 -22 0 -41 -8 -19 -8
-39 -12 -44 -9 -5 3 -9 0 -9 -6 0 -6 -4 -8 -10 -5 -9 6 -15 -34 -12 -80 2 -16
0 -17 -8 -5 -6 9 -10 10 -10 3 0 -6 5 -15 10 -18 6 -3 10 -13 10 -21 0 -8 -4
-12 -10 -9 -16 10 -11 -22 6 -39 14 -14 11 -20 -7 -18 -10 2 2 -37 12 -44 5
-3 9 -1 9 4 0 5 11 7 25 4 15 -2 25 -11 25 -21 0 -19 63 -48 68 -31 5 15 59
12 93 -6 17 -8 33 -13 36 -10 9 9 63 -24 63 -39 0 -7 4 -16 9 -19 5 -3 8 1 7
10 -1 20 60 40 144 47 36 3 77 10 92 16 l28 10 -20 34 c-16 27 -18 40 -11 60
5 14 9 54 9 89 0 34 3 71 7 81 4 10 3 17 -4 17 -6 0 -11 -8 -12 -17 0 -10 -6
0 -13 22 -11 37 -13 38 -24 20 -11 -19 -11 -19 -12 5 0 19 -2 22 -10 10 -8
-12 -10 -12 -16 3 -3 9 -10 14 -15 11 -5 -3 -9 -1 -9 4 0 14 50 22 51 8 1 -6
5 3 9 19 7 28 8 28 9 5 1 -17 10 -29 28 -37 38 -18 43 -16 43 12 0 14 5 25 10
25 6 0 10 -7 10 -15 0 -8 4 -15 8 -15 17 0 21 13 12 31 -8 14 -6 21 11 29 16
9 19 18 15 38 -3 15 -3 21 0 15 12 -29 24 -11 18 27 -4 25 -3 40 4 40 14 0 80
70 115 123 22 32 28 52 26 87 -1 25 2 54 7 65 19 42 10 129 -18 175 -60 102
-109 138 -210 155 -21 3 -38 10 -38 15 0 6 -11 5 -24 -2 -20 -8 -28 -7 -41 6
-18 18 -26 18 -103 4z"/>
<path d="M2300 2331 c0 -4 8 -32 19 -62 22 -65 79 -157 136 -223 37 -42 98
-133 134 -201 23 -44 80 -134 127 -200 47 -66 90 -131 96 -145 6 -14 12 -61
13 -105 3 -94 40 -230 69 -262 34 -35 46 -52 46 -64 0 -6 6 -9 14 -6 16 6 30
-19 19 -36 -4 -6 0 -8 10 -4 10 3 17 2 17 -4 0 -6 4 -8 9 -4 5 3 16 -1 24 -9
8 -8 17 -12 21 -9 3 4 6 -1 6 -10 0 -9 12 -18 33 -22 17 -4 37 -11 42 -15 11
-8 25 -9 110 -10 80 0 152 24 200 66 23 21 31 33 20 28 -11 -4 -49 -14 -84
-22 -59 -13 -71 -13 -132 1 -112 27 -198 93 -238 182 -53 117 -62 152 -62 217
1 38 -3 69 -10 73 -6 4 -23 -5 -38 -19 -65 -63 -67 -11 -5 131 18 40 18 59 -1
67 -29 11 -14 90 16 84 10 -2 14 6 14 27 0 25 -4 30 -27 32 -15 1 -32 -4 -38
-12 -15 -19 -44 -8 -69 26 -12 16 -26 27 -31 24 -6 -3 -7 0 -4 8 3 10 -5 19
-24 28 -16 7 -34 25 -41 41 -8 18 -19 27 -27 24 -8 -3 -13 -2 -11 3 1 4 -14
24 -34 43 -28 29 -39 34 -55 26 -18 -9 -18 -9 0 6 27 22 14 50 -21 43 -27 -5
-27 -5 -8 10 14 11 16 17 8 20 -7 3 -13 10 -13 18 0 7 -7 18 -15 25 -12 10
-18 10 -32 -1 -16 -13 -17 -12 -5 3 11 14 10 20 -5 37 -9 12 -23 21 -30 21 -7
0 -10 6 -7 14 4 11 0 13 -18 9 -23 -5 -23 -5 -3 10 19 15 18 16 -25 36 -25 11
-37 21 -27 21 16 0 17 2 3 15 -18 18 -66 37 -66 26z"/>
<path d="M1798 1738 c-16 -6 -31 -21 -37 -40 -14 -39 -14 -39 6 -31 12 5 14 3
8 -7 -14 -22 -12 -63 3 -94 12 -24 12 -30 1 -37 -8 -5 -9 -9 -4 -9 6 0 1 -7
-9 -15 -17 -13 -18 -15 -3 -15 14 0 16 -8 13 -39 -1 -21 -7 -44 -11 -51 -5 -9
-4 -11 3 -6 7 4 12 1 12 -8 0 -8 6 -17 13 -19 9 -4 9 -8 -2 -16 -10 -6 -15
-31 -16 -76 -1 -42 -7 -70 -15 -75 -10 -6 -9 -9 1 -12 12 -4 12 -8 0 -22 -12
-14 -12 -19 -2 -26 7 -4 9 -10 4 -13 -5 -3 -8 -21 -8 -41 1 -19 -2 -33 -7 -30
-8 5 -12 -9 -8 -40 1 -10 -3 -15 -8 -12 -7 4 -9 -9 -7 -34 2 -31 0 -40 -12
-40 -13 0 -13 -3 -3 -15 9 -10 9 -15 1 -15 -6 0 -11 -17 -11 -39 0 -22 -5 -42
-12 -44 -10 -4 -10 -8 0 -15 11 -7 10 -10 -3 -16 -10 -3 -15 -15 -14 -28 2
-13 0 -28 -4 -35 -4 -7 -2 -21 5 -32 9 -15 9 -23 -1 -35 -11 -13 -9 -16 13
-22 14 -3 23 -11 20 -16 -4 -6 2 -8 17 -4 21 6 22 6 5 -5 -14 -8 -24 -8 -43 0
-14 7 -28 9 -31 7 -6 -7 61 -36 82 -36 10 0 13 -6 10 -15 -4 -10 -2 -13 8 -10
8 3 15 0 15 -8 0 -7 -13 -14 -29 -15 -15 -1 -28 2 -28 8 0 11 -39 14 -64 4
-14 -5 -14 -8 1 -22 15 -16 93 -25 93 -11 0 3 26 10 57 16 45 8 60 8 71 -3 7
-8 11 -18 7 -24 -3 -5 -1 -20 6 -32 9 -16 9 -23 0 -26 -17 -6 -13 -22 5 -22
10 0 14 -6 10 -15 -3 -10 1 -15 11 -15 14 0 14 -3 -3 -21 -19 -22 -19 -22 4
-14 21 6 23 5 14 -12 -11 -21 -4 -93 9 -93 5 0 8 -5 6 -12 -1 -7 7 -12 18 -13
11 0 20 -7 21 -15 1 -22 15 -50 46 -96 15 -23 28 -49 28 -58 0 -9 7 -19 15
-22 8 -4 15 -12 15 -20 0 -11 28 -14 150 -14 149 0 150 0 151 23 1 12 1 28 0
34 -1 7 4 23 10 35 11 21 11 22 -5 9 -15 -13 -16 -12 -6 13 14 38 12 46 -5 16
-8 -14 -14 -19 -15 -12 0 7 -5 10 -10 7 -6 -3 -13 1 -16 9 -3 9 -11 13 -16 9
-7 -4 -9 4 -6 21 4 20 2 26 -11 24 -19 -3 -18 0 9 72 24 66 24 60 0 60 -11 0
-23 -7 -26 -15 -9 -24 -26 -18 -19 7 6 17 4 20 -9 15 -9 -4 -16 -2 -16 4 0 6
-4 7 -10 4 -5 -3 -7 0 -4 9 3 9 -2 17 -15 21 -22 7 -27 20 -12 29 5 3 11 17
14 32 3 18 1 22 -6 15 -18 -18 -31 -13 -16 6 13 15 12 15 -9 4 l-23 -12 23 41
c35 63 77 101 152 140 74 38 198 138 237 190 13 19 49 59 80 90 58 58 136 96
205 102 21 1 30 6 27 15 -3 7 -12 13 -20 13 -8 0 -11 5 -8 11 8 12 -33 51 -46
44 -4 -3 -11 0 -15 6 -4 8 -9 7 -15 -2 -6 -10 -9 -10 -9 -2 0 9 -7 10 -25 3
-22 -8 -25 -7 -25 11 0 11 7 34 16 50 20 40 10 50 -13 13 -17 -28 -63 -45 -63
-24 0 6 -9 5 -20 -2 -14 -9 -23 -10 -28 -3 -4 6 -13 10 -19 11 -30 2 -34 5
-27 16 4 6 -1 17 -10 24 -11 8 -13 14 -7 19 6 3 11 11 11 17 0 6 -7 5 -16 -3
-15 -12 -16 -11 -10 9 7 22 -15 58 -28 45 -3 -4 -6 4 -6 16 0 15 -5 21 -14 18
-9 -4 -12 2 -10 19 2 18 -7 29 -34 46 -21 12 -43 28 -50 35 -21 21 -106 54
-124 49 -10 -2 -16 0 -13 4 3 5 -7 11 -22 14 -113 22 -235 41 -270 41 -23 0
-39 3 -37 6 2 4 -6 6 -19 5 -12 -2 -28 3 -35 10 -9 10 -7 16 10 28 12 9 18 16
13 16 -6 0 -1 7 9 15 11 8 15 15 9 15 -6 0 -16 -7 -23 -15 -7 -8 -18 -15 -24
-15 -6 0 -4 4 4 10 8 5 11 12 7 16 -3 4 -13 1 -21 -5 -17 -14 -16 -3 2 42 15
36 15 37 -3 37 -13 0 -14 4 -4 21 10 19 9 20 -13 14 -21 -6 -22 -5 -5 8 23 19
3 28 -35 15z"/>
<path d="M1604 292 c-6 -4 -11 -27 -12 -52 -2 -72 -3 -80 -11 -80 -8 0 -12
-103 -5 -137 4 -20 11 -23 52 -23 37 0 50 4 60 21 11 17 11 20 0 13 -8 -4 -6
0 3 12 18 21 21 54 6 54 -5 0 -6 -7 -3 -16 5 -14 4 -15 -8 -5 -15 13 -10 50 8
64 7 6 5 7 -5 4 -18 -6 -64 38 -49 48 5 3 14 4 18 1 5 -3 9 1 9 9 0 8 -9 17
-19 21 -24 7 -23 21 3 29 19 6 20 8 3 26 -18 20 -32 23 -50 11z"/>
</g>
</svg>
